# xmcd
# Copyright (C) 1995-1998 Ti Kan
#
# Track frame offsets:
#       150
#       14777
#       34634
#       47991
#       65078
#       80319
#       93552
#       105035
#       117052
#       135352
#       148435
#       162473
#
# Disc length: 2394 seconds
#
# Revision: 0
# Processed by: cddbd v1.5.2PL0 Copyright (c) Steve Scherf et al.
# Submitted via: CD-Import v1.0
#
DISCID=a209580c
DTITLE=Naomi Shelton and The Gospel Queens - What Have You Done, My Brother
DYEAR=2009
DGENRE=
TTITLE0=What Is This?
TTITLE1=What More Can I Do?
TTITLE2=I'll Take The Long Road
TTITLE3=What Have You Done?
TTITLE4=I Need You To Hold My Hand
TTITLE5=Trouble In My Way
TTITLE6=Jordan River
TTITLE7=He Knows My Heart
TTITLE8=Am I Asking Too Much
TTITLE9=By Your Side
TTITLE10=Lift My Burdens
TTITLE11=A Change Is Gonna Come
EXTD=
EXTT0=
EXTT1=
EXTT2=
EXTT3=
EXTT4=
EXTT5=
EXTT6=
EXTT7=
EXTT8=
EXTT9=
EXTT10=
EXTT11=
PLAYORDER=
